<mxfile host="app.diagrams.net" modified="2021-03-23T13:01:58.267Z" agent="5.0 (Windows NT 10.0; Win64; x64) AppleWebKit/537.36 (KHTML, like Gecko) Chrome/89.0.4389.90 Safari/537.36" etag="rzEWx9Fn9Kz-KN0hySpt" version="14.5.0" type="github">
  <diagram id="R2lEEEUBdFMjLlhIrx00" name="Page-1">
    <mxGraphModel dx="2523" dy="896" grid="1" gridSize="10" guides="1" tooltips="1" connect="1" arrows="1" fold="1" page="1" pageScale="1" pageWidth="850" pageHeight="1100" math="0" shadow="0" extFonts="Permanent Marker^https://fonts.googleapis.com/css?family=Permanent+Marker">
      <root>
        <mxCell id="0" />
        <mxCell id="1" parent="0" />
        <mxCell id="GZmMJAmtcE-sTbj9nhgh-1" value="Aluno&lt;br&gt;" style="rounded=0;whiteSpace=wrap;html=1;" parent="1" vertex="1">
          <mxGeometry x="-450" y="190" width="170" height="120" as="geometry" />
        </mxCell>
        <mxCell id="GZmMJAmtcE-sTbj9nhgh-2" value="Nome" style="ellipse;whiteSpace=wrap;html=1;" parent="1" vertex="1">
          <mxGeometry x="-300" y="20" width="120" height="80" as="geometry" />
        </mxCell>
        <mxCell id="GZmMJAmtcE-sTbj9nhgh-3" value="Nº de CC" style="ellipse;whiteSpace=wrap;html=1;" parent="1" vertex="1">
          <mxGeometry x="-180" y="120" width="120" height="80" as="geometry" />
        </mxCell>
        <mxCell id="GZmMJAmtcE-sTbj9nhgh-4" value="Morada" style="ellipse;whiteSpace=wrap;html=1;" parent="1" vertex="1">
          <mxGeometry x="-530" y="60" width="120" height="80" as="geometry" />
        </mxCell>
        <mxCell id="GZmMJAmtcE-sTbj9nhgh-6" value="" style="endArrow=none;html=1;exitX=1;exitY=0;exitDx=0;exitDy=0;" parent="1" source="GZmMJAmtcE-sTbj9nhgh-1" edge="1">
          <mxGeometry width="50" height="50" relative="1" as="geometry">
            <mxPoint x="-230" y="200" as="sourcePoint" />
            <mxPoint x="-180" y="150" as="targetPoint" />
          </mxGeometry>
        </mxCell>
        <mxCell id="GZmMJAmtcE-sTbj9nhgh-7" value="" style="endArrow=none;html=1;exitX=0.629;exitY=0.008;exitDx=0;exitDy=0;exitPerimeter=0;" parent="1" source="GZmMJAmtcE-sTbj9nhgh-1" edge="1">
          <mxGeometry width="50" height="50" relative="1" as="geometry">
            <mxPoint x="-320" y="140" as="sourcePoint" />
            <mxPoint x="-270" y="90" as="targetPoint" />
          </mxGeometry>
        </mxCell>
        <mxCell id="GZmMJAmtcE-sTbj9nhgh-8" value="" style="endArrow=none;html=1;exitX=0.2;exitY=-0.033;exitDx=0;exitDy=0;exitPerimeter=0;" parent="1" source="GZmMJAmtcE-sTbj9nhgh-1" edge="1">
          <mxGeometry width="50" height="50" relative="1" as="geometry">
            <mxPoint x="-490" y="180" as="sourcePoint" />
            <mxPoint x="-440" y="130" as="targetPoint" />
          </mxGeometry>
        </mxCell>
        <mxCell id="GZmMJAmtcE-sTbj9nhgh-10" value="Turma" style="rounded=0;whiteSpace=wrap;html=1;" parent="1" vertex="1">
          <mxGeometry x="220" y="230" width="130" height="80" as="geometry" />
        </mxCell>
        <mxCell id="Nh_rJbEss-eiu9aIsADR-4" value="nº de alunos" style="ellipse;whiteSpace=wrap;html=1;align=center;dashed=1;" parent="1" vertex="1">
          <mxGeometry x="480" y="250" width="130" height="70" as="geometry" />
        </mxCell>
        <mxCell id="Nh_rJbEss-eiu9aIsADR-5" value="Identificador" style="ellipse;whiteSpace=wrap;html=1;align=center;fontStyle=4;" parent="1" vertex="1">
          <mxGeometry x="280" y="100" width="120" height="60" as="geometry" />
        </mxCell>
        <mxCell id="Nh_rJbEss-eiu9aIsADR-7" value="Data de Nascimento" style="ellipse;whiteSpace=wrap;html=1;align=center;fontStyle=4;" parent="1" vertex="1">
          <mxGeometry x="-640" y="200" width="100" height="70" as="geometry" />
        </mxCell>
        <mxCell id="Nh_rJbEss-eiu9aIsADR-9" value="Frequenta" style="shape=rhombus;double=1;perimeter=rhombusPerimeter;whiteSpace=wrap;html=1;align=center;" parent="1" vertex="1">
          <mxGeometry x="-100" y="220" width="150" height="100" as="geometry" />
        </mxCell>
        <mxCell id="Nh_rJbEss-eiu9aIsADR-10" value="Ano Letivo" style="ellipse;whiteSpace=wrap;html=1;align=center;" parent="1" vertex="1">
          <mxGeometry x="425" y="140" width="145" height="70" as="geometry" />
        </mxCell>
        <mxCell id="Nh_rJbEss-eiu9aIsADR-11" value="" style="endArrow=none;html=1;exitX=0.446;exitY=-0.037;exitDx=0;exitDy=0;exitPerimeter=0;" parent="1" source="GZmMJAmtcE-sTbj9nhgh-10" edge="1">
          <mxGeometry width="50" height="50" relative="1" as="geometry">
            <mxPoint x="280" y="210" as="sourcePoint" />
            <mxPoint x="330" y="160" as="targetPoint" />
          </mxGeometry>
        </mxCell>
        <mxCell id="Nh_rJbEss-eiu9aIsADR-12" value="" style="endArrow=none;html=1;exitX=1;exitY=0;exitDx=0;exitDy=0;" parent="1" source="GZmMJAmtcE-sTbj9nhgh-10" edge="1">
          <mxGeometry width="50" height="50" relative="1" as="geometry">
            <mxPoint x="380" y="230" as="sourcePoint" />
            <mxPoint x="430" y="180" as="targetPoint" />
          </mxGeometry>
        </mxCell>
        <mxCell id="Nh_rJbEss-eiu9aIsADR-13" value="ano letivo" style="ellipse;whiteSpace=wrap;html=1;" parent="1" vertex="1">
          <mxGeometry x="420" y="380" width="120" height="80" as="geometry" />
        </mxCell>
        <mxCell id="Nh_rJbEss-eiu9aIsADR-14" value="" style="endArrow=none;html=1;entryX=0.877;entryY=1.013;entryDx=0;entryDy=0;entryPerimeter=0;" parent="1" source="Nh_rJbEss-eiu9aIsADR-13" target="GZmMJAmtcE-sTbj9nhgh-10" edge="1">
          <mxGeometry width="50" height="50" relative="1" as="geometry">
            <mxPoint x="140" y="500" as="sourcePoint" />
            <mxPoint x="190" y="450" as="targetPoint" />
          </mxGeometry>
        </mxCell>
        <mxCell id="Nh_rJbEss-eiu9aIsADR-15" value="" style="endArrow=none;html=1;exitX=1;exitY=0.5;exitDx=0;exitDy=0;" parent="1" source="GZmMJAmtcE-sTbj9nhgh-10" edge="1">
          <mxGeometry width="50" height="50" relative="1" as="geometry">
            <mxPoint x="380" y="390" as="sourcePoint" />
            <mxPoint x="480" y="280" as="targetPoint" />
          </mxGeometry>
        </mxCell>
        <mxCell id="Nh_rJbEss-eiu9aIsADR-16" value="é da responsabilidade" style="shape=rhombus;double=1;perimeter=rhombusPerimeter;whiteSpace=wrap;html=1;align=center;" parent="1" vertex="1">
          <mxGeometry x="210" y="500" width="140" height="130" as="geometry" />
        </mxCell>
        <mxCell id="Nh_rJbEss-eiu9aIsADR-19" value="" style="shape=link;html=1;rounded=0;width=6;exitX=1.012;exitY=0.625;exitDx=0;exitDy=0;exitPerimeter=0;" parent="1" source="GZmMJAmtcE-sTbj9nhgh-1" edge="1">
          <mxGeometry relative="1" as="geometry">
            <mxPoint x="-250" y="270" as="sourcePoint" />
            <mxPoint x="-90" y="270" as="targetPoint" />
          </mxGeometry>
        </mxCell>
        <mxCell id="Nh_rJbEss-eiu9aIsADR-21" value="" style="shape=link;html=1;rounded=0;exitX=1;exitY=0.5;exitDx=0;exitDy=0;" parent="1" source="Nh_rJbEss-eiu9aIsADR-9" edge="1">
          <mxGeometry relative="1" as="geometry">
            <mxPoint x="60" y="260" as="sourcePoint" />
            <mxPoint x="220" y="260" as="targetPoint" />
          </mxGeometry>
        </mxCell>
        <mxCell id="Nh_rJbEss-eiu9aIsADR-23" value="" style="shape=link;html=1;rounded=0;entryX=0.5;entryY=0;entryDx=0;entryDy=0;" parent="1" source="GZmMJAmtcE-sTbj9nhgh-10" target="Nh_rJbEss-eiu9aIsADR-16" edge="1">
          <mxGeometry relative="1" as="geometry">
            <mxPoint x="80" y="470" as="sourcePoint" />
            <mxPoint x="240" y="470" as="targetPoint" />
          </mxGeometry>
        </mxCell>
        <mxCell id="Nh_rJbEss-eiu9aIsADR-24" value="N" style="resizable=0;html=1;align=right;verticalAlign=bottom;" parent="Nh_rJbEss-eiu9aIsADR-23" connectable="0" vertex="1">
          <mxGeometry x="1" relative="1" as="geometry">
            <mxPoint x="-10" y="-169.96" as="offset" />
          </mxGeometry>
        </mxCell>
        <mxCell id="Nh_rJbEss-eiu9aIsADR-25" value="Professor" style="whiteSpace=wrap;html=1;align=center;" parent="1" vertex="1">
          <mxGeometry x="235" y="750" width="100" height="40" as="geometry" />
        </mxCell>
        <mxCell id="Nh_rJbEss-eiu9aIsADR-26" value="" style="shape=link;html=1;rounded=0;entryX=0.6;entryY=-0.025;entryDx=0;entryDy=0;entryPerimeter=0;" parent="1" source="Nh_rJbEss-eiu9aIsADR-16" target="Nh_rJbEss-eiu9aIsADR-25" edge="1">
          <mxGeometry relative="1" as="geometry">
            <mxPoint x="130" y="750" as="sourcePoint" />
            <mxPoint x="290" y="750" as="targetPoint" />
          </mxGeometry>
        </mxCell>
        <mxCell id="Nh_rJbEss-eiu9aIsADR-27" value="1" style="resizable=0;html=1;align=right;verticalAlign=bottom;" parent="Nh_rJbEss-eiu9aIsADR-26" connectable="0" vertex="1">
          <mxGeometry x="1" relative="1" as="geometry">
            <mxPoint x="-25" y="-9.179999999999993" as="offset" />
          </mxGeometry>
        </mxCell>
        <mxCell id="Nh_rJbEss-eiu9aIsADR-31" value="Nº de Funcionário" style="ellipse;whiteSpace=wrap;html=1;align=center;fontStyle=4;" parent="1" vertex="1">
          <mxGeometry x="437.5" y="830" width="120" height="40" as="geometry" />
        </mxCell>
        <mxCell id="Nh_rJbEss-eiu9aIsADR-33" value="" style="endArrow=none;html=1;rounded=0;entryX=0;entryY=0.5;entryDx=0;entryDy=0;exitX=0.894;exitY=0.997;exitDx=0;exitDy=0;exitPerimeter=0;" parent="1" source="Nh_rJbEss-eiu9aIsADR-25" edge="1">
          <mxGeometry relative="1" as="geometry">
            <mxPoint x="220" y="620" as="sourcePoint" />
            <mxPoint x="440" y="850" as="targetPoint" />
          </mxGeometry>
        </mxCell>
        <mxCell id="Nh_rJbEss-eiu9aIsADR-36" value="" style="endArrow=none;html=1;rounded=0;exitX=0.556;exitY=1.031;exitDx=0;exitDy=0;exitPerimeter=0;entryX=0.5;entryY=0;entryDx=0;entryDy=0;" parent="1" source="Nh_rJbEss-eiu9aIsADR-25" edge="1">
          <mxGeometry relative="1" as="geometry">
            <mxPoint x="220" y="890" as="sourcePoint" />
            <mxPoint x="360" y="930" as="targetPoint" />
          </mxGeometry>
        </mxCell>
        <mxCell id="Nh_rJbEss-eiu9aIsADR-37" value="" style="endArrow=none;html=1;rounded=0;exitX=0.75;exitY=1;exitDx=0;exitDy=0;entryX=0;entryY=0;entryDx=0;entryDy=0;" parent="1" source="Nh_rJbEss-eiu9aIsADR-25" edge="1">
          <mxGeometry relative="1" as="geometry">
            <mxPoint x="300.5999999999999" y="801.24" as="sourcePoint" />
            <mxPoint x="444.64466094067257" y="925.8578643762689" as="targetPoint" />
          </mxGeometry>
        </mxCell>
        <mxCell id="Nh_rJbEss-eiu9aIsADR-38" value="" style="endArrow=none;html=1;rounded=0;exitX=1;exitY=0.5;exitDx=0;exitDy=0;entryX=0;entryY=0.5;entryDx=0;entryDy=0;" parent="1" source="Nh_rJbEss-eiu9aIsADR-25" edge="1">
          <mxGeometry relative="1" as="geometry">
            <mxPoint x="310.5999999999999" y="811.24" as="sourcePoint" />
            <mxPoint x="440" y="730" as="targetPoint" />
          </mxGeometry>
        </mxCell>
        <mxCell id="Nh_rJbEss-eiu9aIsADR-39" value="" style="endArrow=none;html=1;rounded=0;entryX=0.25;entryY=1;entryDx=0;entryDy=0;" parent="1" target="Nh_rJbEss-eiu9aIsADR-25" edge="1">
          <mxGeometry relative="1" as="geometry">
            <mxPoint x="210" y="950" as="sourcePoint" />
            <mxPoint x="310" y="680" as="targetPoint" />
          </mxGeometry>
        </mxCell>
        <mxCell id="Nh_rJbEss-eiu9aIsADR-40" value="Morada" style="ellipse;whiteSpace=wrap;html=1;align=center;" parent="1" vertex="1">
          <mxGeometry x="160" y="950" width="100" height="40" as="geometry" />
        </mxCell>
        <mxCell id="Nh_rJbEss-eiu9aIsADR-41" value="Email" style="ellipse;whiteSpace=wrap;html=1;align=center;" parent="1" vertex="1">
          <mxGeometry x="60" y="880" width="100" height="40" as="geometry" />
        </mxCell>
        <mxCell id="Nh_rJbEss-eiu9aIsADR-42" value="" style="endArrow=none;html=1;rounded=0;entryX=0;entryY=1;entryDx=0;entryDy=0;exitX=0.603;exitY=-0.042;exitDx=0;exitDy=0;exitPerimeter=0;" parent="1" source="Nh_rJbEss-eiu9aIsADR-41" target="Nh_rJbEss-eiu9aIsADR-25" edge="1">
          <mxGeometry relative="1" as="geometry">
            <mxPoint x="150" y="850" as="sourcePoint" />
            <mxPoint x="310" y="850" as="targetPoint" />
          </mxGeometry>
        </mxCell>
        <mxCell id="Nh_rJbEss-eiu9aIsADR-43" value="" style="endArrow=none;html=1;rounded=0;exitX=1;exitY=0.5;exitDx=0;exitDy=0;entryX=-0.018;entryY=0.45;entryDx=0;entryDy=0;entryPerimeter=0;" parent="1" source="Nh_rJbEss-eiu9aIsADR-7" target="GZmMJAmtcE-sTbj9nhgh-1" edge="1">
          <mxGeometry relative="1" as="geometry">
            <mxPoint x="-300" y="470" as="sourcePoint" />
            <mxPoint x="-140" y="470" as="targetPoint" />
          </mxGeometry>
        </mxCell>
        <mxCell id="Nh_rJbEss-eiu9aIsADR-45" value="Nome" style="ellipse;whiteSpace=wrap;html=1;align=center;" parent="1" vertex="1">
          <mxGeometry x="440" y="710" width="100" height="40" as="geometry" />
        </mxCell>
        <mxCell id="Nh_rJbEss-eiu9aIsADR-46" value="Nº de CC" style="ellipse;whiteSpace=wrap;html=1;align=center;" parent="1" vertex="1">
          <mxGeometry x="437.5" y="910" width="100" height="40" as="geometry" />
        </mxCell>
        <mxCell id="Nh_rJbEss-eiu9aIsADR-47" value="Data de Nascimento" style="ellipse;whiteSpace=wrap;html=1;align=center;" parent="1" vertex="1">
          <mxGeometry x="300" y="930" width="100" height="40" as="geometry" />
        </mxCell>
        <mxCell id="Nh_rJbEss-eiu9aIsADR-48" value="Nº de Telefone" style="ellipse;whiteSpace=wrap;html=1;align=center;" parent="1" vertex="1">
          <mxGeometry x="457.5" y="780" width="100" height="40" as="geometry" />
        </mxCell>
        <mxCell id="Nh_rJbEss-eiu9aIsADR-49" value="" style="endArrow=none;html=1;rounded=0;exitX=1;exitY=0.75;exitDx=0;exitDy=0;entryX=0.085;entryY=0.225;entryDx=0;entryDy=0;entryPerimeter=0;" parent="1" source="Nh_rJbEss-eiu9aIsADR-25" target="Nh_rJbEss-eiu9aIsADR-48" edge="1">
          <mxGeometry relative="1" as="geometry">
            <mxPoint x="360" y="720" as="sourcePoint" />
            <mxPoint x="520" y="720" as="targetPoint" />
          </mxGeometry>
        </mxCell>
        <mxCell id="Nh_rJbEss-eiu9aIsADR-50" value="" style="endArrow=none;html=1;rounded=0;entryX=0;entryY=0.75;entryDx=0;entryDy=0;exitX=0.5;exitY=0;exitDx=0;exitDy=0;" parent="1" source="Nh_rJbEss-eiu9aIsADR-51" target="GZmMJAmtcE-sTbj9nhgh-10" edge="1">
          <mxGeometry relative="1" as="geometry">
            <mxPoint x="10" y="560" as="sourcePoint" />
            <mxPoint x="310" y="540" as="targetPoint" />
          </mxGeometry>
        </mxCell>
        <mxCell id="Nh_rJbEss-eiu9aIsADR-51" value="Podem Realizar" style="shape=rhombus;perimeter=rhombusPerimeter;whiteSpace=wrap;html=1;align=center;" parent="1" vertex="1">
          <mxGeometry x="-70" y="600" width="140" height="130" as="geometry" />
        </mxCell>
        <mxCell id="Nh_rJbEss-eiu9aIsADR-52" value="" style="shape=link;html=1;rounded=0;exitX=0.5;exitY=0;exitDx=0;exitDy=0;" parent="1" source="Nh_rJbEss-eiu9aIsADR-55" target="Nh_rJbEss-eiu9aIsADR-51" edge="1">
          <mxGeometry relative="1" as="geometry">
            <mxPoint y="840" as="sourcePoint" />
            <mxPoint x="20" y="700" as="targetPoint" />
          </mxGeometry>
        </mxCell>
        <mxCell id="Nh_rJbEss-eiu9aIsADR-53" value="N" style="resizable=0;html=1;align=left;verticalAlign=bottom;" parent="Nh_rJbEss-eiu9aIsADR-52" connectable="0" vertex="1">
          <mxGeometry x="-1" relative="1" as="geometry">
            <mxPoint x="20" y="-10" as="offset" />
          </mxGeometry>
        </mxCell>
        <mxCell id="Nh_rJbEss-eiu9aIsADR-54" value="1" style="resizable=0;html=1;align=right;verticalAlign=bottom;" parent="Nh_rJbEss-eiu9aIsADR-52" connectable="0" vertex="1">
          <mxGeometry x="1" relative="1" as="geometry">
            <mxPoint x="219.89" y="-341.11" as="offset" />
          </mxGeometry>
        </mxCell>
        <mxCell id="Nh_rJbEss-eiu9aIsADR-55" value="Atividades" style="whiteSpace=wrap;html=1;align=center;" parent="1" vertex="1">
          <mxGeometry x="-140" y="880" width="100" height="40" as="geometry" />
        </mxCell>
        <mxCell id="Nh_rJbEss-eiu9aIsADR-56" value="Designação" style="ellipse;whiteSpace=wrap;html=1;align=center;fontStyle=4;" parent="1" vertex="1">
          <mxGeometry x="-270" y="980" width="100" height="40" as="geometry" />
        </mxCell>
        <mxCell id="Nh_rJbEss-eiu9aIsADR-57" value="" style="endArrow=none;html=1;rounded=0;entryX=0;entryY=1;entryDx=0;entryDy=0;" parent="1" target="Nh_rJbEss-eiu9aIsADR-55" edge="1">
          <mxGeometry relative="1" as="geometry">
            <mxPoint x="-220" y="980" as="sourcePoint" />
            <mxPoint x="-60" y="980" as="targetPoint" />
          </mxGeometry>
        </mxCell>
        <mxCell id="Nh_rJbEss-eiu9aIsADR-58" value="Identificador" style="ellipse;whiteSpace=wrap;html=1;align=center;" parent="1" vertex="1">
          <mxGeometry x="-140" y="980" width="100" height="40" as="geometry" />
        </mxCell>
        <mxCell id="Nh_rJbEss-eiu9aIsADR-59" value="" style="endArrow=none;html=1;rounded=0;exitX=0.5;exitY=0;exitDx=0;exitDy=0;entryX=0.5;entryY=1;entryDx=0;entryDy=0;" parent="1" source="Nh_rJbEss-eiu9aIsADR-58" target="Nh_rJbEss-eiu9aIsADR-55" edge="1">
          <mxGeometry relative="1" as="geometry">
            <mxPoint x="20" y="940" as="sourcePoint" />
            <mxPoint x="180" y="940" as="targetPoint" />
          </mxGeometry>
        </mxCell>
        <mxCell id="Nh_rJbEss-eiu9aIsADR-61" value="Custo" style="ellipse;whiteSpace=wrap;html=1;align=center;" parent="1" vertex="1">
          <mxGeometry x="-50" y="940" width="100" height="40" as="geometry" />
        </mxCell>
        <mxCell id="Nh_rJbEss-eiu9aIsADR-62" value="" style="endArrow=none;html=1;rounded=0;entryX=1;entryY=0.75;entryDx=0;entryDy=0;exitX=0.399;exitY=0.005;exitDx=0;exitDy=0;exitPerimeter=0;" parent="1" source="Nh_rJbEss-eiu9aIsADR-61" target="Nh_rJbEss-eiu9aIsADR-55" edge="1">
          <mxGeometry relative="1" as="geometry">
            <mxPoint x="20" y="940" as="sourcePoint" />
            <mxPoint x="180" y="940" as="targetPoint" />
          </mxGeometry>
        </mxCell>
        <mxCell id="Nh_rJbEss-eiu9aIsADR-66" value="É da responsabilidade&amp;nbsp;" style="shape=rhombus;double=1;perimeter=rhombusPerimeter;whiteSpace=wrap;html=1;align=center;" parent="1" vertex="1">
          <mxGeometry x="-675" y="490" width="180" height="110" as="geometry" />
        </mxCell>
        <mxCell id="Nh_rJbEss-eiu9aIsADR-67" value="Adulto" style="whiteSpace=wrap;html=1;align=center;" parent="1" vertex="1">
          <mxGeometry x="-470" y="710" width="140" height="90" as="geometry" />
        </mxCell>
        <mxCell id="Nh_rJbEss-eiu9aIsADR-69" value="" style="shape=link;html=1;rounded=0;entryX=0.5;entryY=0;entryDx=0;entryDy=0;exitX=0.5;exitY=1;exitDx=0;exitDy=0;" parent="1" target="Nh_rJbEss-eiu9aIsADR-67" edge="1" source="Nh_rJbEss-eiu9aIsADR-66">
          <mxGeometry relative="1" as="geometry">
            <mxPoint x="-370" y="600" as="sourcePoint" />
            <mxPoint x="-400" y="704.95" as="targetPoint" />
          </mxGeometry>
        </mxCell>
        <mxCell id="Nh_rJbEss-eiu9aIsADR-70" value="N" style="resizable=0;html=1;align=right;verticalAlign=bottom;" parent="Nh_rJbEss-eiu9aIsADR-69" connectable="0" vertex="1">
          <mxGeometry x="1" relative="1" as="geometry">
            <mxPoint x="-0.12" y="-14.58" as="offset" />
          </mxGeometry>
        </mxCell>
        <mxCell id="Nh_rJbEss-eiu9aIsADR-71" value="Parentesco" style="ellipse;whiteSpace=wrap;html=1;align=center;" parent="1" vertex="1">
          <mxGeometry x="-620" y="720" width="100" height="40" as="geometry" />
        </mxCell>
        <mxCell id="Nh_rJbEss-eiu9aIsADR-72" value="Telefone" style="ellipse;whiteSpace=wrap;html=1;align=center;" parent="1" vertex="1">
          <mxGeometry x="-620" y="780" width="100" height="40" as="geometry" />
        </mxCell>
        <mxCell id="Nh_rJbEss-eiu9aIsADR-73" value="Email" style="ellipse;whiteSpace=wrap;html=1;align=center;" parent="1" vertex="1">
          <mxGeometry x="-580" y="840" width="100" height="40" as="geometry" />
        </mxCell>
        <mxCell id="Nh_rJbEss-eiu9aIsADR-74" value="Morada" style="ellipse;whiteSpace=wrap;html=1;align=center;" parent="1" vertex="1">
          <mxGeometry x="-450" y="840" width="100" height="40" as="geometry" />
        </mxCell>
        <mxCell id="Nh_rJbEss-eiu9aIsADR-75" value="Data de Nascimento" style="ellipse;whiteSpace=wrap;html=1;align=center;" parent="1" vertex="1">
          <mxGeometry x="-290" y="750" width="100" height="40" as="geometry" />
        </mxCell>
        <mxCell id="Nh_rJbEss-eiu9aIsADR-76" value="Nome" style="ellipse;whiteSpace=wrap;html=1;align=center;" parent="1" vertex="1">
          <mxGeometry x="-320" y="830" width="100" height="40" as="geometry" />
        </mxCell>
        <mxCell id="Nh_rJbEss-eiu9aIsADR-77" value="Nº de CC" style="ellipse;whiteSpace=wrap;html=1;align=center;" parent="1" vertex="1">
          <mxGeometry x="-500" y="890" width="100" height="40" as="geometry" />
        </mxCell>
        <mxCell id="Nh_rJbEss-eiu9aIsADR-78" value="" style="endArrow=none;html=1;rounded=0;exitX=1;exitY=0.5;exitDx=0;exitDy=0;entryX=0.002;entryY=0.313;entryDx=0;entryDy=0;entryPerimeter=0;" parent="1" source="Nh_rJbEss-eiu9aIsADR-71" target="Nh_rJbEss-eiu9aIsADR-67" edge="1">
          <mxGeometry relative="1" as="geometry">
            <mxPoint x="-420" y="790" as="sourcePoint" />
            <mxPoint x="-260" y="790" as="targetPoint" />
          </mxGeometry>
        </mxCell>
        <mxCell id="Nh_rJbEss-eiu9aIsADR-80" value="" style="endArrow=none;html=1;rounded=0;entryX=-0.002;entryY=0.649;entryDx=0;entryDy=0;entryPerimeter=0;" parent="1" target="Nh_rJbEss-eiu9aIsADR-67" edge="1">
          <mxGeometry relative="1" as="geometry">
            <mxPoint x="-530" y="789.43" as="sourcePoint" />
            <mxPoint x="-370" y="789.43" as="targetPoint" />
          </mxGeometry>
        </mxCell>
        <mxCell id="Nh_rJbEss-eiu9aIsADR-81" value="" style="endArrow=none;html=1;rounded=0;exitX=0.737;exitY=0.096;exitDx=0;exitDy=0;exitPerimeter=0;entryX=0.12;entryY=1.005;entryDx=0;entryDy=0;entryPerimeter=0;" parent="1" source="Nh_rJbEss-eiu9aIsADR-73" target="Nh_rJbEss-eiu9aIsADR-67" edge="1">
          <mxGeometry relative="1" as="geometry">
            <mxPoint x="-420" y="790" as="sourcePoint" />
            <mxPoint x="-260" y="790" as="targetPoint" />
          </mxGeometry>
        </mxCell>
        <mxCell id="Nh_rJbEss-eiu9aIsADR-83" value="" style="endArrow=none;html=1;rounded=0;exitX=0.5;exitY=0;exitDx=0;exitDy=0;entryX=0.324;entryY=1.005;entryDx=0;entryDy=0;entryPerimeter=0;" parent="1" source="Nh_rJbEss-eiu9aIsADR-74" target="Nh_rJbEss-eiu9aIsADR-67" edge="1">
          <mxGeometry relative="1" as="geometry">
            <mxPoint x="-496.29999999999995" y="853.8399999999999" as="sourcePoint" />
            <mxPoint x="-443.20000000000005" y="810.45" as="targetPoint" />
          </mxGeometry>
        </mxCell>
        <mxCell id="Nh_rJbEss-eiu9aIsADR-84" value="" style="endArrow=none;html=1;rounded=0;exitX=0.3;exitY=0;exitDx=0;exitDy=0;exitPerimeter=0;entryX=0.19;entryY=0.998;entryDx=0;entryDy=0;entryPerimeter=0;" parent="1" source="Nh_rJbEss-eiu9aIsADR-77" target="Nh_rJbEss-eiu9aIsADR-67" edge="1">
          <mxGeometry relative="1" as="geometry">
            <mxPoint x="-486.29999999999995" y="863.8399999999999" as="sourcePoint" />
            <mxPoint x="-433.20000000000005" y="820.45" as="targetPoint" />
          </mxGeometry>
        </mxCell>
        <mxCell id="Nh_rJbEss-eiu9aIsADR-85" value="" style="endArrow=none;html=1;rounded=0;exitX=0.063;exitY=0.161;exitDx=0;exitDy=0;exitPerimeter=0;entryX=0.12;entryY=1.005;entryDx=0;entryDy=0;entryPerimeter=0;" parent="1" source="Nh_rJbEss-eiu9aIsADR-76" edge="1">
          <mxGeometry relative="1" as="geometry">
            <mxPoint x="-391.54999999999995" y="843.3899999999999" as="sourcePoint" />
            <mxPoint x="-338.45000000000005" y="800" as="targetPoint" />
          </mxGeometry>
        </mxCell>
        <mxCell id="Nh_rJbEss-eiu9aIsADR-86" value="" style="endArrow=none;html=1;rounded=0;exitX=0.737;exitY=0.096;exitDx=0;exitDy=0;exitPerimeter=0;entryX=0;entryY=0.5;entryDx=0;entryDy=0;" parent="1" target="Nh_rJbEss-eiu9aIsADR-75" edge="1">
          <mxGeometry relative="1" as="geometry">
            <mxPoint x="-333.09999999999997" y="773.3899999999999" as="sourcePoint" />
            <mxPoint x="-280.00000000000006" y="730" as="targetPoint" />
          </mxGeometry>
        </mxCell>
        <mxCell id="Nh_rJbEss-eiu9aIsADR-87" value="N" style="text;html=1;strokeColor=none;fillColor=none;align=center;verticalAlign=middle;whiteSpace=wrap;rounded=0;" parent="1" vertex="1">
          <mxGeometry x="-270" y="275" width="40" height="20" as="geometry" />
        </mxCell>
        <mxCell id="Nh_rJbEss-eiu9aIsADR-88" value="" style="endArrow=none;html=1;rounded=0;entryX=1;entryY=0.75;entryDx=0;entryDy=0;" parent="1" target="GZmMJAmtcE-sTbj9nhgh-10" edge="1">
          <mxGeometry relative="1" as="geometry">
            <mxPoint x="610" y="390" as="sourcePoint" />
            <mxPoint x="360" y="340" as="targetPoint" />
          </mxGeometry>
        </mxCell>
        <mxCell id="Nh_rJbEss-eiu9aIsADR-89" value="Designação" style="ellipse;whiteSpace=wrap;html=1;" parent="1" vertex="1">
          <mxGeometry x="600" y="350" width="120" height="80" as="geometry" />
        </mxCell>
        <mxCell id="YY2Gfu6Xn765ALYcr6xx-1" value="Escolaridade" style="rounded=0;whiteSpace=wrap;html=1;" vertex="1" parent="1">
          <mxGeometry x="30" y="40" width="120" height="60" as="geometry" />
        </mxCell>
        <mxCell id="YY2Gfu6Xn765ALYcr6xx-2" value="M" style="text;html=1;strokeColor=none;fillColor=none;align=center;verticalAlign=middle;whiteSpace=wrap;rounded=0;" vertex="1" parent="1">
          <mxGeometry x="170" y="230" width="40" height="20" as="geometry" />
        </mxCell>
        <mxCell id="YY2Gfu6Xn765ALYcr6xx-8" value="" style="endArrow=none;html=1;rounded=0;exitX=0.5;exitY=0;exitDx=0;exitDy=0;entryX=0.5;entryY=1;entryDx=0;entryDy=0;" edge="1" parent="1" source="Nh_rJbEss-eiu9aIsADR-66" target="GZmMJAmtcE-sTbj9nhgh-1">
          <mxGeometry relative="1" as="geometry">
            <mxPoint x="-30" y="560" as="sourcePoint" />
            <mxPoint x="130" y="560" as="targetPoint" />
          </mxGeometry>
        </mxCell>
        <mxCell id="YY2Gfu6Xn765ALYcr6xx-9" value="Autorizado" style="shape=rhombus;double=1;perimeter=rhombusPerimeter;whiteSpace=wrap;html=1;align=center;" vertex="1" parent="1">
          <mxGeometry x="-440" y="470" width="160" height="160" as="geometry" />
        </mxCell>
        <mxCell id="YY2Gfu6Xn765ALYcr6xx-13" value="" style="endArrow=none;html=1;rounded=0;entryX=0.84;entryY=-0.001;entryDx=0;entryDy=0;entryPerimeter=0;exitX=0.36;exitY=0.874;exitDx=0;exitDy=0;exitPerimeter=0;" edge="1" parent="1" source="YY2Gfu6Xn765ALYcr6xx-9" target="Nh_rJbEss-eiu9aIsADR-67">
          <mxGeometry relative="1" as="geometry">
            <mxPoint x="-30" y="560" as="sourcePoint" />
            <mxPoint x="130" y="560" as="targetPoint" />
          </mxGeometry>
        </mxCell>
        <mxCell id="YY2Gfu6Xn765ALYcr6xx-14" value="N" style="resizable=0;html=1;align=right;verticalAlign=bottom;" connectable="0" vertex="1" parent="YY2Gfu6Xn765ALYcr6xx-13">
          <mxGeometry x="1" relative="1" as="geometry">
            <mxPoint x="12.33" y="-20.14" as="offset" />
          </mxGeometry>
        </mxCell>
        <mxCell id="YY2Gfu6Xn765ALYcr6xx-15" value="" style="endArrow=none;html=1;rounded=0;entryX=0.75;entryY=1;entryDx=0;entryDy=0;" edge="1" parent="1" source="YY2Gfu6Xn765ALYcr6xx-9" target="GZmMJAmtcE-sTbj9nhgh-1">
          <mxGeometry relative="1" as="geometry">
            <mxPoint x="-30" y="560" as="sourcePoint" />
            <mxPoint x="130" y="560" as="targetPoint" />
          </mxGeometry>
        </mxCell>
        <mxCell id="YY2Gfu6Xn765ALYcr6xx-16" value="M" style="resizable=0;html=1;align=right;verticalAlign=bottom;" connectable="0" vertex="1" parent="YY2Gfu6Xn765ALYcr6xx-15">
          <mxGeometry x="1" relative="1" as="geometry">
            <mxPoint x="-17.43" y="50.33" as="offset" />
          </mxGeometry>
        </mxCell>
        <mxCell id="YY2Gfu6Xn765ALYcr6xx-20" value="" style="endArrow=none;html=1;rounded=0;entryX=0.948;entryY=1.028;entryDx=0;entryDy=0;entryPerimeter=0;exitX=0.25;exitY=0;exitDx=0;exitDy=0;" edge="1" parent="1" source="Nh_rJbEss-eiu9aIsADR-55" target="GZmMJAmtcE-sTbj9nhgh-1">
          <mxGeometry relative="1" as="geometry">
            <mxPoint x="-30" y="560" as="sourcePoint" />
            <mxPoint x="130" y="560" as="targetPoint" />
          </mxGeometry>
        </mxCell>
        <mxCell id="YY2Gfu6Xn765ALYcr6xx-21" value="M" style="resizable=0;html=1;align=left;verticalAlign=bottom;" connectable="0" vertex="1" parent="YY2Gfu6Xn765ALYcr6xx-20">
          <mxGeometry x="-1" relative="1" as="geometry" />
        </mxCell>
        <mxCell id="YY2Gfu6Xn765ALYcr6xx-22" value="N" style="resizable=0;html=1;align=right;verticalAlign=bottom;" connectable="0" vertex="1" parent="YY2Gfu6Xn765ALYcr6xx-20">
          <mxGeometry x="1" relative="1" as="geometry" />
        </mxCell>
        <mxCell id="YY2Gfu6Xn765ALYcr6xx-23" value="Tem" style="shape=rhombus;perimeter=rhombusPerimeter;whiteSpace=wrap;html=1;align=center;" vertex="1" parent="1">
          <mxGeometry x="110" y="130" width="120" height="60" as="geometry" />
        </mxCell>
        <mxCell id="YY2Gfu6Xn765ALYcr6xx-25" value="" style="endArrow=none;html=1;rounded=0;exitX=0.431;exitY=1.027;exitDx=0;exitDy=0;exitPerimeter=0;" edge="1" parent="1" source="YY2Gfu6Xn765ALYcr6xx-1" target="YY2Gfu6Xn765ALYcr6xx-23">
          <mxGeometry relative="1" as="geometry">
            <mxPoint x="-30" y="210" as="sourcePoint" />
            <mxPoint x="130" y="210" as="targetPoint" />
          </mxGeometry>
        </mxCell>
        <mxCell id="YY2Gfu6Xn765ALYcr6xx-26" value="" style="shape=link;html=1;rounded=0;entryX=0.25;entryY=0;entryDx=0;entryDy=0;exitX=1;exitY=1;exitDx=0;exitDy=0;" edge="1" parent="1" source="YY2Gfu6Xn765ALYcr6xx-23" target="GZmMJAmtcE-sTbj9nhgh-10">
          <mxGeometry relative="1" as="geometry">
            <mxPoint x="-30" y="210" as="sourcePoint" />
            <mxPoint x="130" y="210" as="targetPoint" />
          </mxGeometry>
        </mxCell>
        <mxCell id="YY2Gfu6Xn765ALYcr6xx-27" value="1" style="resizable=0;html=1;align=right;verticalAlign=bottom;" connectable="0" vertex="1" parent="YY2Gfu6Xn765ALYcr6xx-26">
          <mxGeometry x="1" relative="1" as="geometry" />
        </mxCell>
        <mxCell id="YY2Gfu6Xn765ALYcr6xx-28" value="Pessoa" style="rounded=1;arcSize=10;whiteSpace=wrap;html=1;align=center;" vertex="1" parent="1">
          <mxGeometry x="-120" y="380" width="100" height="40" as="geometry" />
        </mxCell>
        <mxCell id="YY2Gfu6Xn765ALYcr6xx-30" value="Is a" style="triangle;whiteSpace=wrap;html=1;direction=north;" vertex="1" parent="1">
          <mxGeometry x="-110" y="490" width="80" height="60" as="geometry" />
        </mxCell>
        <mxCell id="YY2Gfu6Xn765ALYcr6xx-31" value="" style="endArrow=none;html=1;entryX=0.5;entryY=1;entryDx=0;entryDy=0;exitX=1;exitY=0.5;exitDx=0;exitDy=0;" edge="1" parent="1" source="YY2Gfu6Xn765ALYcr6xx-30" target="YY2Gfu6Xn765ALYcr6xx-28">
          <mxGeometry width="50" height="50" relative="1" as="geometry">
            <mxPoint x="20" y="590" as="sourcePoint" />
            <mxPoint x="70" y="540" as="targetPoint" />
          </mxGeometry>
        </mxCell>
        <mxCell id="YY2Gfu6Xn765ALYcr6xx-32" value="" style="endArrow=none;html=1;entryX=0;entryY=0.5;entryDx=0;entryDy=0;exitX=1;exitY=0;exitDx=0;exitDy=0;" edge="1" parent="1" source="Nh_rJbEss-eiu9aIsADR-67" target="YY2Gfu6Xn765ALYcr6xx-30">
          <mxGeometry width="50" height="50" relative="1" as="geometry">
            <mxPoint x="20" y="590" as="sourcePoint" />
            <mxPoint x="70" y="540" as="targetPoint" />
          </mxGeometry>
        </mxCell>
        <mxCell id="YY2Gfu6Xn765ALYcr6xx-33" value="" style="endArrow=none;html=1;entryX=0.257;entryY=0.896;entryDx=0;entryDy=0;entryPerimeter=0;exitX=0;exitY=0;exitDx=0;exitDy=0;" edge="1" parent="1" source="Nh_rJbEss-eiu9aIsADR-25" target="YY2Gfu6Xn765ALYcr6xx-30">
          <mxGeometry width="50" height="50" relative="1" as="geometry">
            <mxPoint x="20" y="590" as="sourcePoint" />
            <mxPoint x="70" y="540" as="targetPoint" />
          </mxGeometry>
        </mxCell>
        <mxCell id="YY2Gfu6Xn765ALYcr6xx-34" value="" style="endArrow=none;html=1;rounded=0;exitX=0.333;exitY=0.125;exitDx=0;exitDy=0;exitPerimeter=0;entryX=1.024;entryY=0.352;entryDx=0;entryDy=0;entryPerimeter=0;" edge="1" parent="1" source="YY2Gfu6Xn765ALYcr6xx-30" target="GZmMJAmtcE-sTbj9nhgh-1">
          <mxGeometry relative="1" as="geometry">
            <mxPoint x="-30" y="560" as="sourcePoint" />
            <mxPoint x="130" y="560" as="targetPoint" />
          </mxGeometry>
        </mxCell>
      </root>
    </mxGraphModel>
  </diagram>
</mxfile>
